<?xml version="1.0" encoding="UTF-8"?>
<svg xmlns="http://www.w3.org/2000/svg" xmlns:xlink="http://www.w3.org/1999/xlink" width="3000" height="3000" viewBox="0 0 3000 3000">
<defs>
<clipPath id="clip-0">
<path clip-rule="nonzero" d="M 300 300 L 2700 300 L 2700 2700 L 300 2700 Z M 300 300 "/>
</clipPath>
<clipPath id="clip-1">
<path clip-rule="nonzero" d="M 1500 300 C 1818.261719 300 2123.480469 426.429688 2348.53125 651.46875 C 2573.570312 876.519531 2700 1181.738281 2700 1500 C 2700 1818.261719 2573.570312 2123.484375 2348.53125 2348.527344 C 2123.480469 2573.570312 1818.261719 2700 1500 2700 C 1181.738281 2700 876.515625 2573.570312 651.472656 2348.527344 C 426.429688 2123.484375 300 1818.261719 300 1500 C 300 1181.738281 426.429688 876.519531 651.472656 651.46875 C 876.515625 426.429688 1181.738281 300 1500 300 Z M 1500 300 "/>
</clipPath>
<clipPath id="clip-2">
<path clip-rule="nonzero" d="M 1500 300 C 1818.261719 300 2123.480469 426.429688 2348.53125 651.46875 C 2573.570312 876.519531 2700 1181.738281 2700 1500 C 2700 1818.261719 2573.570312 2123.484375 2348.53125 2348.527344 C 2123.480469 2573.570312 1818.261719 2700 1500 2700 C 1181.738281 2700 876.515625 2573.570312 651.472656 2348.527344 C 426.429688 2123.484375 300 1818.261719 300 1500 C 300 1181.738281 426.429688 876.519531 651.472656 651.46875 C 876.515625 426.429688 1181.738281 300 1500 300 Z M 1500 300 "/>
</clipPath>
<linearGradient id="linear-pattern-0" gradientUnits="userSpaceOnUse" x1="6054.905429" y1="-2681.14706" x2="6660.021888" y2="-2018.844576" gradientTransform="matrix(0, -3.77953, 3.77953, 0, 10406.8, 25555.5)">
<stop offset="0" stop-color="rgb(100%, 83.528137%, 89.802551%)" stop-opacity="1"/>
<stop offset="0.125" stop-color="rgb(100%, 83.528137%, 89.802551%)" stop-opacity="1"/>
<stop offset="0.1875" stop-color="rgb(100%, 83.71582%, 89.625549%)" stop-opacity="1"/>
<stop offset="0.21875" stop-color="rgb(100%, 84.049988%, 89.311218%)" stop-opacity="1"/>
<stop offset="0.25" stop-color="rgb(100%, 84.344482%, 89.035034%)" stop-opacity="1"/>
<stop offset="0.28125" stop-color="rgb(100%, 84.637451%, 88.757324%)" stop-opacity="1"/>
<stop offset="0.3125" stop-color="rgb(100%, 84.931946%, 88.48114%)" stop-opacity="1"/>
<stop offset="0.34375" stop-color="rgb(100%, 85.22644%, 88.204956%)" stop-opacity="1"/>
<stop offset="0.375" stop-color="rgb(100%, 85.519409%, 87.928772%)" stop-opacity="1"/>
<stop offset="0.40625" stop-color="rgb(100%, 85.813904%, 87.651062%)" stop-opacity="1"/>
<stop offset="0.4375" stop-color="rgb(100%, 86.108398%, 87.374878%)" stop-opacity="1"/>
<stop offset="0.46875" stop-color="rgb(100%, 86.401367%, 87.098694%)" stop-opacity="1"/>
<stop offset="0.47744" stop-color="rgb(100%, 86.695862%, 86.820984%)" stop-opacity="1"/>
<stop offset="0.5" stop-color="rgb(100%, 86.843872%, 86.683655%)" stop-opacity="1"/>
<stop offset="0.52256" stop-color="rgb(100%, 86.990356%, 86.5448%)" stop-opacity="1"/>
<stop offset="0.53125" stop-color="rgb(100%, 87.136841%, 86.407471%)" stop-opacity="1"/>
<stop offset="0.5625" stop-color="rgb(100%, 87.283325%, 86.268616%)" stop-opacity="1"/>
<stop offset="0.59375" stop-color="rgb(100%, 87.57782%, 85.990906%)" stop-opacity="1"/>
<stop offset="0.625" stop-color="rgb(100%, 87.870789%, 85.714722%)" stop-opacity="1"/>
<stop offset="0.65625" stop-color="rgb(100%, 88.165283%, 85.438538%)" stop-opacity="1"/>
<stop offset="0.6875" stop-color="rgb(100%, 88.459778%, 85.160828%)" stop-opacity="1"/>
<stop offset="0.71875" stop-color="rgb(100%, 88.752747%, 84.884644%)" stop-opacity="1"/>
<stop offset="0.75" stop-color="rgb(100%, 89.047241%, 84.608459%)" stop-opacity="1"/>
<stop offset="0.78125" stop-color="rgb(100%, 89.341736%, 84.33075%)" stop-opacity="1"/>
<stop offset="0.8125" stop-color="rgb(100%, 89.634705%, 84.054565%)" stop-opacity="1"/>
<stop offset="0.84375" stop-color="rgb(100%, 89.929199%, 83.778381%)" stop-opacity="1"/>
<stop offset="0.875" stop-color="rgb(100%, 90.135193%, 83.584595%)" stop-opacity="1"/>
<stop offset="1" stop-color="rgb(100%, 90.194702%, 83.528137%)" stop-opacity="1"/>
</linearGradient>
</defs>
<rect x="-300" y="-300" width="3600" height="3600" fill="rgb(100%, 100%, 100%)" fill-opacity="1"/>
<g clip-path="url(#clip-0)">
<g clip-path="url(#clip-1)">
<g clip-path="url(#clip-2)">
<path fill-rule="nonzero" fill="url(#linear-pattern-0)" d="M 300 2700 L 2700 2700 L 2700 300 L 300 300 Z M 300 2700 "/>
</g>
</g>
</g>
<path fill-rule="nonzero" fill="rgb(100%, 100%, 100%)" fill-opacity="1" d="M 1817.839844 2411.765625 C 1788.488281 2411.765625 1764.710938 2435.550781 1764.710938 2464.894531 C 1764.710938 2494.238281 1788.488281 2518.027344 1817.839844 2518.027344 C 1831.929688 2518.027344 1845.441406 2512.429688 1855.410156 2502.464844 C 1865.371094 2492.5 1870.96875 2478.988281 1870.96875 2464.894531 C 1870.96875 2450.804688 1865.371094 2437.289062 1855.410156 2427.328125 C 1845.441406 2417.363281 1831.929688 2411.765625 1817.839844 2411.765625 Z M 1817.839844 2411.765625 "/>
<path fill-rule="nonzero" fill="rgb(87.109375%, 52.929688%, 52.929688%)" fill-opacity="1" d="M 455.410156 495.261719 C 417.679688 495.261719 387.097656 525.839844 387.097656 563.570312 C 387.097656 601.300781 417.679688 631.878906 455.410156 631.878906 C 473.527344 631.878906 490.902344 624.679688 503.710938 611.871094 C 516.523438 599.058594 523.71875 581.679688 523.71875 563.570312 C 523.71875 525.839844 493.136719 495.261719 455.410156 495.261719 Z M 455.410156 495.261719 "/>
<path fill-rule="nonzero" fill="rgb(100%, 70.117188%, 50.193787%)" fill-opacity="1" d="M 611.007812 426.941406 C 602.953125 426.941406 595.230469 430.140625 589.539062 435.839844 C 583.84375 441.53125 580.644531 449.25 580.644531 457.308594 C 580.644531 474.070312 594.238281 487.671875 611.007812 487.671875 C 627.773438 487.671875 641.367188 474.070312 641.367188 457.308594 C 641.367188 449.25 638.167969 441.53125 632.476562 435.839844 C 626.78125 430.140625 619.058594 426.941406 611.007812 426.941406 Z M 611.007812 426.941406 "/>
<path fill-rule="nonzero" fill="rgb(87.109375%, 52.929688%, 52.929688%)" fill-opacity="1" d="M 425.046875 669.828125 C 416.664062 669.828125 409.867188 676.621094 409.867188 685.011719 C 409.867188 693.390625 416.664062 700.191406 425.046875 700.191406 C 429.074219 700.191406 432.933594 698.589844 435.78125 695.738281 C 438.628906 692.898438 440.226562 689.03125 440.226562 685.011719 C 440.226562 676.621094 433.433594 669.828125 425.046875 669.828125 Z M 425.046875 669.828125 "/>
<path fill-rule="nonzero" fill="rgb(100%, 70.117188%, 50.193787%)" fill-opacity="1" d="M 2622.109375 2252.402344 C 2612.96875 2252.402344 2604.210938 2256.03125 2597.75 2262.492188 C 2591.289062 2268.949219 2587.660156 2277.710938 2587.660156 2286.847656 C 2587.660156 2295.980469 2591.289062 2304.742188 2597.75 2311.199219 C 2604.210938 2317.660156 2612.96875 2321.289062 2622.109375 2321.289062 C 2641.128906 2321.289062 2656.550781 2305.867188 2656.550781 2286.847656 C 2656.550781 2267.824219 2641.128906 2252.402344 2622.109375 2252.402344 Z M 2622.109375 2252.402344 "/>
<path fill-rule="nonzero" fill="rgb(100%, 70.117188%, 50.193787%)" fill-opacity="1" d="M 459.203125 2423.148438 C 442.4375 2423.148438 428.84375 2436.742188 428.84375 2453.511719 C 428.84375 2461.5625 432.042969 2469.285156 437.734375 2474.980469 C 443.429688 2480.671875 451.152344 2483.871094 459.203125 2483.871094 C 475.972656 2483.871094 489.5625 2470.277344 489.5625 2453.511719 C 489.5625 2445.457031 486.363281 2437.734375 480.671875 2432.042969 C 474.976562 2426.347656 467.253906 2423.148438 459.203125 2423.148438 Z M 459.203125 2423.148438 "/>
<path fill-rule="nonzero" fill="rgb(33.325195%, 86.71875%, 100%)" fill-opacity="1" d="M 2332.308594 444.171875 C 2315.550781 444.179688 2301.949219 457.769531 2301.949219 474.53125 C 2301.949219 491.300781 2315.550781 504.890625 2332.308594 504.890625 C 2349.078125 504.890625 2362.671875 491.300781 2362.671875 474.53125 C 2362.671875 466.480469 2359.480469 458.761719 2353.78125 453.070312 C 2348.089844 447.371094 2340.359375 444.171875 2332.308594 444.171875 Z M 2332.308594 444.171875 "/>
<path fill-rule="nonzero" fill="rgb(50.193787%, 89.84375%, 100%)" fill-opacity="1" d="M 2214.648438 2229.578125 C 2171.859375 2229.578125 2137.160156 2264.273438 2137.160156 2307.074219 C 2137.160156 2327.628906 2145.320312 2347.339844 2159.859375 2361.871094 C 2174.390625 2376.40625 2194.101562 2384.570312 2214.648438 2384.570312 C 2235.210938 2384.570312 2254.921875 2376.40625 2269.449219 2361.871094 C 2283.980469 2347.339844 2292.148438 2327.628906 2292.148438 2307.074219 C 2292.148438 2264.273438 2257.449219 2229.578125 2214.648438 2229.578125 Z M 2214.648438 2229.578125 "/>
<path fill-rule="nonzero" fill="rgb(100%, 100%, 100%)" fill-opacity="1" d="M 904.363281 693.691406 C 894.53125 693.691406 886.5625 701.660156 886.5625 711.488281 C 886.5625 716.210938 888.4375 720.738281 891.777344 724.078125 C 895.113281 727.421875 899.640625 729.289062 904.363281 729.289062 C 914.195312 729.289062 922.167969 721.320312 922.167969 711.488281 C 922.164062 701.660156 914.195312 693.691406 904.363281 693.691406 Z M 904.363281 693.691406 "/>
<path fill-rule="nonzero" fill="rgb(12.939453%, 40.380859%, 47.068787%)" fill-opacity="1" d="M 1400.929688 939.25 L 806.535156 1280.820312 L 1599.070312 1736.25 L 2193.46875 1394.679688 Z M 1400.929688 939.25 "/>
<path fill-rule="nonzero" fill="rgb(12.939453%, 40.380859%, 47.068787%)" fill-opacity="1" d="M 806.535156 1280.820312 L 806.535156 1371.910156 L 1599.070312 1827.339844 L 1599.070312 1736.25 Z M 806.535156 1280.820312 "/>
<path fill-rule="nonzero" fill="rgb(83.59375%, 96.484375%, 100%)" fill-opacity="1" d="M 1400.929688 939.25 L 1400.929688 984.789062 L 846.160156 1303.589844 L 806.535156 1280.820312 L 1400.929688 939.25 "/>
<path fill-rule="nonzero" fill="rgb(83.59375%, 96.484375%, 100%)" fill-opacity="1" d="M 2193.46875 1394.679688 L 2153.839844 1417.449219 L 1400.929688 984.789062 L 1400.929688 939.25 "/>
<path fill-rule="nonzero" fill="rgb(52.929688%, 80.46875%, 87.109375%)" fill-opacity="1" d="M 1772.308594 717.230469 C 1768.519531 717.339844 1764.820312 718.390625 1761.550781 720.269531 L 1246.398438 1016.308594 C 1239.320312 1020.371094 1234.960938 1027.890625 1234.960938 1036.019531 L 1234.960938 1490.980469 C 1234.78125 1503.679688 1245.078125 1514.070312 1257.839844 1514.070312 C 1270.601562 1514.070312 1280.898438 1503.679688 1280.71875 1490.980469 L 1280.71875 1049.171875 L 1750.109375 779.429688 L 1750.109375 1149.398438 C 1749.929688 1162.109375 1760.21875 1172.5 1772.980469 1172.5 C 1785.75 1172.5 1796.039062 1162.109375 1795.859375 1149.398438 L 1795.859375 739.988281 C 1795.859375 727.160156 1785.199219 716.859375 1772.308594 717.230469 Z M 1772.308594 717.230469 "/>
<path fill-rule="nonzero" fill="rgb(83.59375%, 96.484375%, 100%)" fill-opacity="1" d="M 1559.441406 1713.480469 L 1599.070312 1736.25 L 2153.839844 1417.449219 L 2114.21875 1394.679688 "/>
<path fill-rule="nonzero" fill="rgb(83.59375%, 96.484375%, 100%)" fill-opacity="1" d="M 1638.691406 1713.480469 L 1599.070312 1736.25 L 846.160156 1303.589844 L 846.160156 1258.050781 "/>
<path fill-rule="nonzero" fill="rgb(21.556091%, 66.992188%, 78.514099%)" fill-opacity="1" d="M 1599.070312 1827.339844 L 1599.070312 2282.777344 L 2065.109375 2016.207031 L 2153.839844 1508.539062 Z M 1599.070312 1827.339844 "/>
<path fill-rule="nonzero" fill="rgb(37.255859%, 73.631287%, 82.8125%)" fill-opacity="1" d="M 1599.070312 1736.25 L 1599.070312 1827.339844 L 2193.46875 1485.769531 L 2193.46875 1394.679688 Z M 1599.070312 1736.25 "/>
<path fill-rule="nonzero" fill="rgb(17.259216%, 53.709412%, 62.693787%)" fill-opacity="1" d="M 924.730469 1904.128906 L 1599.070312 2282.777344 L 1599.070312 1827.339844 L 846.160156 1394.679688 Z M 924.730469 1904.128906 "/>
<path fill-rule="nonzero" fill="rgb(83.59375%, 96.484375%, 100%)" fill-opacity="1" d="M 1796.53125 734.789062 C 1792.738281 734.898438 1789.039062 735.941406 1785.761719 737.828125 L 1270.609375 1033.859375 C 1263.539062 1037.929688 1259.179688 1045.449219 1259.179688 1053.589844 L 1259.179688 1508.539062 C 1259 1521.238281 1269.289062 1531.628906 1282.058594 1531.628906 C 1294.820312 1531.628906 1305.109375 1521.238281 1304.929688 1508.539062 L 1304.929688 1066.730469 L 1774.320312 796.988281 L 1774.320312 1166.960938 C 1774.140625 1179.671875 1784.429688 1190.058594 1797.199219 1190.058594 C 1809.96875 1190.058594 1820.261719 1179.671875 1820.078125 1166.960938 L 1820.078125 757.550781 C 1820.078125 744.710938 1809.421875 734.410156 1796.53125 734.789062 Z M 1796.53125 734.789062 "/>
<path fill-rule="nonzero" fill="rgb(83.59375%, 96.484375%, 100%)" fill-opacity="1" d="M 1108.53125 1587.410156 L 1150.570312 1610.859375 L 1150.570312 1988.96875 L 1108.53125 1965.519531 Z M 1108.53125 1587.410156 "/>
<path fill-rule="nonzero" fill="rgb(83.59375%, 96.484375%, 100%)" fill-opacity="1" d="M 1195.859375 1636.109375 L 1237.910156 1659.558594 L 1237.910156 2037.675781 L 1195.859375 2014.226562 Z M 1195.859375 1636.109375 "/>
<path fill-rule="nonzero" fill="rgb(83.59375%, 96.484375%, 100%)" fill-opacity="1" d="M 1286.421875 1686.621094 L 1328.46875 1710.070312 L 1328.46875 2088.183594 L 1286.421875 2064.734375 Z M 1286.421875 1686.621094 "/>
<path fill-rule="nonzero" fill="rgb(83.59375%, 96.484375%, 100%)" fill-opacity="1" d="M 1949.949219 1663.320312 L 1907.898438 1686.769531 L 1907.898438 2064.882812 L 1949.949219 2041.433594 Z M 1949.949219 1663.320312 "/>
<path fill-rule="nonzero" fill="rgb(83.59375%, 96.484375%, 100%)" fill-opacity="1" d="M 1862.621094 1712.019531 L 1820.570312 1735.46875 L 1820.570312 2113.585938 L 1862.621094 2090.136719 Z M 1862.621094 1712.019531 "/>
<path fill-rule="nonzero" fill="rgb(83.59375%, 96.484375%, 100%)" fill-opacity="1" d="M 1772.058594 1762.519531 L 1730.011719 1785.96875 L 1730.011719 2164.089844 L 1772.058594 2140.640625 Z M 1772.058594 1762.519531 "/>
</svg>
